<?xml version="1.0" standalone="no"?>
<!DOCTYPE svg PUBLIC "-//W3C//DTD SVG 20010904//EN"
 "http://www.w3.org/TR/2001/REC-SVG-20010904/DTD/svg10.dtd">
<svg version="1.0" xmlns="http://www.w3.org/2000/svg"
 width="1000.000000pt" height="1000.000000pt" viewBox="0 0 1000.000000 1000.000000"
 preserveAspectRatio="xMidYMid meet">

<g transform="translate(0.000000,1000.000000) scale(0.100000,-0.100000)"
fill="#000000" stroke="none">
<path d="M3960 8870 c-457 -42 -917 -202 -1332 -463 -665 -421 -1157 -1133
-1322 -1912 -48 -231 -60 -352 -60 -615 1 -506 94 -905 316 -1350 404 -812
1156 -1400 2038 -1594 l145 -32 5 -819 c5 -902 1 -846 67 -906 65 -61 136 -78
218 -54 69 20 134 80 153 141 9 32 12 428 12 1755 0 1096 4 1757 11 1834 35
415 179 771 431 1070 92 109 149 164 292 284 317 265 642 413 1041 472 148 23
464 18 615 -9 447 -81 783 -261 1107 -593 130 -134 174 -188 264 -322 158
-239 249 -466 300 -755 30 -168 37 -473 15 -650 -57 -446 -233 -807 -559
-1148 -277 -290 -601 -485 -963 -579 -216 -56 -235 -58 -884 -64 l-605 -6 -51
-27 c-57 -30 -115 -90 -141 -145 -17 -35 -18 -82 -18 -568 0 -528 0 -530 22
-571 91 -171 322 -172 407 -3 l26 53 0 367 c0 252 4 376 11 393 7 13 23 29 38
35 16 6 201 12 471 14 422 4 453 5 600 30 176 30 365 79 501 132 738 285 1351
968 1539 1713 137 547 95 1151 -116 1644 -178 417 -508 819 -899 1094 -326
229 -691 371 -1095 425 -144 20 -509 17 -653 -4 -147 -22 -368 -77 -501 -125
-130 -47 -365 -164 -483 -241 -51 -33 -93 -59 -93 -58 0 2 13 44 29 95 l29 92
-29 21 c-52 37 -213 107 -294 129 -173 45 -356 48 -561 9 -123 -23 -185 -44
-293 -98 -123 -61 -186 -106 -287 -203 -189 -183 -303 -387 -354 -637 -19 -93
-20 -136 -20 -668 0 -649 -2 -632 80 -714 76 -76 113 -84 385 -84 l230 0 3
-663 2 -664 -42 7 c-136 23 -426 124 -593 207 -397 199 -742 495 -987 849
-279 403 -427 830 -460 1332 -49 730 229 1458 756 1983 452 449 1036 713 1668
754 225 15 477 -5 718 -55 405 -84 848 -312 1175 -604 68 -61 97 -90 197 -200
27 -29 50 -52 52 -50 1 2 30 76 63 164 34 88 71 183 82 212 l20 52 -123 111
c-68 61 -159 138 -202 171 -451 347 -986 557 -1549 609 -124 11 -437 11 -565
0z m488 -2256 c42 -9 101 -26 130 -38 l53 -23 -105 -92 c-371 -327 -627 -770
-732 -1268 l-17 -83 -108 0 c-100 0 -110 2 -136 24 l-28 24 0 409 c0 461 4
495 74 639 105 217 291 363 521 409 92 18 256 18 348 -1z"/>
<path d="M6118 5829 c-518 -60 -922 -432 -1041 -957 -21 -93 -22 -119 -22
-662 0 -454 3 -574 14 -613 18 -61 85 -137 148 -168 l48 -24 493 -3 c392 -2
516 0 605 12 351 46 627 212 856 513 75 98 176 307 207 428 32 124 42 313 25
435 -65 445 -398 853 -808 990 -162 54 -337 70 -525 49z m297 -463 c221 -33
387 -155 489 -359 65 -129 88 -225 89 -367 1 -216 -68 -379 -236 -548 -87 -89
-193 -156 -307 -194 l-95 -32 -393 -4 -392 -3 -31 30 -30 31 4 422 c3 364 6
431 21 482 115 390 465 605 881 542z"/>
</g>
</svg>
